<svg width="12" height="12" viewBox="0 0 12 12" fill="none" xmlns="http://www.w3.org/2000/svg">
<g clip-path="url(#clip0_19_4657)">
<path d="M9.39777 5.6633L3.36027 0.947677C3.34449 0.935257 3.32553 0.927538 3.30557 0.925407C3.2856 0.923277 3.26544 0.92682 3.2474 0.935632C3.22936 0.944443 3.21417 0.958164 3.20357 0.97522C3.19298 0.992275 3.18741 1.01197 3.1875 1.03205V2.06732C3.1875 2.13294 3.2183 2.19589 3.2692 2.23607L8.09063 6.0008L3.2692 9.76553C3.21697 9.80571 3.1875 9.86866 3.1875 9.93428V10.9696C3.1875 11.0593 3.29063 11.1088 3.36027 11.0539L9.39777 6.3383C9.44908 6.29827 9.4906 6.24707 9.51915 6.18859C9.5477 6.13011 9.56254 6.06588 9.56254 6.0008C9.56254 5.93572 9.5477 5.8715 9.51915 5.81301C9.4906 5.75453 9.44908 5.70333 9.39777 5.6633Z" fill="black" fill-opacity="0.85"/>
</g>
<defs>
<clipPath id="clip0_19_4657">
<rect width="12" height="12" fill="white" transform="translate(0 0.000488281)"/>
</clipPath>
</defs>
</svg>
