<?xml version="1.0" standalone="no"?>
<!DOCTYPE svg PUBLIC "-//W3C//DTD SVG 20010904//EN"
 "http://www.w3.org/TR/2001/REC-SVG-20010904/DTD/svg10.dtd">
<svg version="1.0" xmlns="http://www.w3.org/2000/svg"
 width="522.000000pt" height="522.000000pt" viewBox="0 0 522.000000 522.000000"
 preserveAspectRatio="xMidYMid meet">
<metadata>
Created by potrace 1.14, written by Peter Selinger 2001-2017
</metadata>
<g transform="translate(0.000000,522.000000) scale(0.100000,-0.100000)"
fill="#000000" stroke="none">
<path d="M3040 5155 c-564 -96 -985 -458 -1091 -935 -13 -60 -19 -125 -19
-221 0 -194 25 -269 125 -378 58 -62 156 -121 202 -121 39 0 89 26 112 58 28
40 57 123 66 193 38 280 250 548 524 664 124 52 202 66 411 74 183 7 199 9
255 35 114 52 169 128 170 237 1 171 -164 344 -376 394 -78 18 -273 18 -379 0z"/>
<path d="M1099 4752 c-88 -24 -169 -73 -249 -152 -77 -76 -155 -217 -214 -389
-221 -636 5 -1284 535 -1536 90 -42 166 -58 239 -49 109 14 231 69 269 123 59
82 28 154 -124 296 -118 109 -179 188 -229 297 -128 277 -100 618 74 893 137
216 117 421 -46 501 -71 35 -164 41 -255 16z"/>
<path d="M3850 4039 c-173 -22 -313 -72 -447 -158 -130 -83 -188 -159 -224
-297 -37 -142 -13 -240 68 -276 57 -25 123 -19 238 23 234 86 482 76 688 -27
191 -96 330 -239 447 -462 59 -111 169 -201 267 -217 59 -9 139 16 191 60 144
124 175 390 71 598 -138 273 -419 537 -701 659 -203 87 -411 121 -598 97z"/>
<path d="M218 2616 c-55 -22 -95 -54 -132 -110 -56 -83 -71 -144 -70 -276 0
-100 4 -125 28 -188 95 -253 370 -547 645 -690 372 -193 771 -192 1106 4 149
88 220 184 252 340 37 178 -28 276 -171 260 -26 -3 -94 -21 -150 -40 -216 -75
-391 -76 -581 -4 -229 87 -402 245 -534 487 -80 148 -174 221 -289 227 -42 2
-81 -1 -104 -10z"/>
<path d="M3725 2612 c-154 -47 -235 -129 -210 -214 15 -49 70 -120 137 -178
110 -95 174 -175 228 -285 68 -136 82 -194 87 -360 7 -209 -34 -365 -145 -548
-65 -108 -92 -186 -92 -269 0 -85 17 -132 67 -188 105 -117 303 -112 489 12
92 61 152 133 214 259 204 406 224 857 54 1228 -105 227 -308 430 -526 523
-94 40 -211 47 -303 20z"/>
<path d="M2904 1740 c-51 -20 -104 -128 -119 -241 -16 -115 -81 -276 -148
-364 -131 -173 -303 -286 -517 -342 -79 -21 -123 -25 -260 -28 -186 -3 -246
-15 -323 -66 -55 -36 -103 -111 -113 -174 -7 -51 15 -140 50 -199 60 -102 211
-202 351 -231 88 -18 171 -19 305 -1 559 75 984 409 1127 886 31 104 44 345
23 439 -18 84 -66 165 -135 229 -93 88 -175 119 -241 92z"/>
</g>
</svg>
